# xmcd
# Track frame offsets:
# 150
# 11922
# 24797
# 36672
# 49967
# 61910
# 74332
# 86862
# 98225
# 110080
# 121722
# 133487
# 146047
# 158845
#
# Disc length: 2257 seconds
# Revision: 0
# Processed by: cddbd v1.4PL0 Copyright (c) Steve Scherf et al.
# Submitted via: VisiTrax 2.9.5.180 - For more info visit www.synapsa.com
#
DISCID=cf08cf0e
DTITLE=Sonny James - The Sonny James country collection
DYEAR=1991
DGENRE=
TTITLE0=It's just a matter of time
TTITLE1=Since I met you baby
TTITLE2=Aworld of our own
TTITLE3=Endlessly
TTITLE4=Only the lonely
TTITLE5=That's why I love you like I do
TTITLE6=Running bear
TTITLE7=Take good care of her
TTITLE8=Born to be with you
TTITLE9=Here comes my honey again
TTITLE10=Bright lights big city
TTITLE11=Don't keep me hangin' on
TTITLE12=My love
TTITLE13=Empty arms
EXTD=
EXTT0=
EXTT1=
EXTT2=
EXTT3=
EXTT4=
EXTT5=
EXTT6=
EXTT7=
EXTT8=
EXTT9=
EXTT10=
EXTT11=
EXTT12=
EXTT13=
PLAYORDER=
